<svg xmlns="http://www.w3.org/2000/svg" xmlns:xlink="http://www.w3.org/1999/xlink" width="231.538" height="29.962" viewBox="0 0 231.538 29.962">
  <defs>
    <clipPath id="clip-path">
      <rect id="Rectangle_28604" data-name="Rectangle 28604" width="68.438" height="29.962" fill="#112a63"/>
    </clipPath>
  </defs>
  <g id="Group_141400" data-name="Group 141400" transform="translate(4126 16381)">
    <g id="Group_141396" data-name="Group 141396" transform="translate(-4176 -16409)">
      <path id="Path_184342" data-name="Path 184342" d="M38.159,5.461s-3.264.038-3.7.038c-2.907,0-3.8,3.849-3.787,4.444v.117c0,6.681.014,17.9.014,17.9H24.449V9.745a7.743,7.743,0,0,1,1.143-4.589,7.953,7.953,0,0,1,2.9-2.616,11.059,11.059,0,0,1,5.336-1.247h6.481Zm19.951-1.8H56.481a24.492,24.492,0,0,0-2.512.148,7.771,7.771,0,0,0-2.7.79A5.446,5.446,0,0,0,49.15,6.521a6.175,6.175,0,0,0-.8,3.554,6.3,6.3,0,0,0,1.05,3.653,6.331,6.331,0,0,0,2.649,2.1,11.808,11.808,0,0,0,3.768.888c.431.036.871.057,1.314.073.324-.012.649-.027.978-.048Zm5.084,20.433a7.951,7.951,0,0,1-2.9,2.616,11.044,11.044,0,0,1-5.336,1.248H48.475l-2.16-4.171s7.576-.037,8.007-.037a4.072,4.072,0,0,0,2.989-2,3.016,3.016,0,0,0,.8-2.445v-.118c-.3,0-.606,0-.909-.006-.348.006-.694.008-1.041,0a34.857,34.857,0,0,1-3.758-.152,15.722,15.722,0,0,1-5.092-1.308,9.641,9.641,0,0,1-3.7-2.912,8.012,8.012,0,0,1-1.485-4.886,7.713,7.713,0,0,1,1.143-4.615,8.009,8.009,0,0,1,2.9-2.59A11.246,11.246,0,0,1,49.8,1.561a24.1,24.1,0,0,1,3.334-.272h11.2V19.5a7.752,7.752,0,0,1-1.142,4.591m43.313-11.571c-.329-.021-.653-.036-.976-.047-.443.015-.882.037-1.312.072a11.727,11.727,0,0,0-3.759.889,6.311,6.311,0,0,0-2.644,2.1,6.305,6.305,0,0,0-1.047,3.655,6.191,6.191,0,0,0,.8,3.557,5.438,5.438,0,0,0,2.119,1.927,7.743,7.743,0,0,0,2.69.791,24.618,24.618,0,0,0,2.505.148h1.628Zm4.918,15.466h-9.885a23.9,23.9,0,0,1-3.327-.273,11.156,11.156,0,0,1-3.623-1.16,8.012,8.012,0,0,1-2.894-2.594,7.744,7.744,0,0,1-1.139-4.619,8.043,8.043,0,0,1,1.482-4.892,9.606,9.606,0,0,1,3.691-2.914,15.671,15.671,0,0,1,5.082-1.31,34.485,34.485,0,0,1,3.75-.152c.346,0,.692,0,1.039,0,.3-.006.605-.006.908-.006V9.951c.012-.594-.879-4.448-3.779-4.448-.432,0-7.992-.038-7.992-.038l2.157-4.174h6.468a11.006,11.006,0,0,1,5.324,1.249,7.935,7.935,0,0,1,2.894,2.619,7.758,7.758,0,0,1,1.14,4.595V27.986ZM82.144,12.521c-.33-.021-.654-.036-.975-.047-.444.015-.882.037-1.313.072a11.743,11.743,0,0,0-3.759.889,6.313,6.313,0,0,0-2.643,2.1A6.311,6.311,0,0,0,72.4,19.191a6.2,6.2,0,0,0,.8,3.557,5.45,5.45,0,0,0,2.119,1.927,7.734,7.734,0,0,0,2.689.791,24.621,24.621,0,0,0,2.507.148h1.627Zm4.918,15.466H77.175a23.89,23.89,0,0,1-3.326-.273,11.158,11.158,0,0,1-3.623-1.16,8.008,8.008,0,0,1-2.894-2.594,7.739,7.739,0,0,1-1.14-4.619,8.038,8.038,0,0,1,1.481-4.892,9.6,9.6,0,0,1,3.692-2.914,15.661,15.661,0,0,1,5.081-1.31,34.5,34.5,0,0,1,3.75-.152c.346,0,.692,0,1.04,0,.3-.006.6-.006.907-.006V9.951c.011-.594-.88-4.448-3.78-4.448-.43,0-7.991-.038-7.991-.038l2.156-4.174H79a11,11,0,0,1,5.325,1.249A7.937,7.937,0,0,1,87.216,5.16a7.77,7.77,0,0,1,1.139,4.595V27.986ZM15.953,12.521c-.329-.021-.653-.036-.976-.047-.442.015-.881.037-1.312.072a11.742,11.742,0,0,0-3.759.889,6.316,6.316,0,0,0-2.644,2.1,6.305,6.305,0,0,0-1.047,3.655,6.191,6.191,0,0,0,.8,3.557A5.437,5.437,0,0,0,9.13,24.676a7.743,7.743,0,0,0,2.69.791,24.621,24.621,0,0,0,2.507.148h1.626Zm4.056,15.466H10.985a23.9,23.9,0,0,1-3.327-.273,11.157,11.157,0,0,1-3.623-1.16,8.012,8.012,0,0,1-2.894-2.594A7.75,7.75,0,0,1,0,19.34a8.033,8.033,0,0,1,1.482-4.892,9.6,9.6,0,0,1,3.691-2.914,15.671,15.671,0,0,1,5.082-1.31,34.485,34.485,0,0,1,3.75-.152c.346,0,.693,0,1.039,0,.3-.006.605-.006.908-.006V9.951c.012-.594-.879-4.448-3.779-4.448-.432,0-7.992-.038-7.992-.038L6.338,1.292h6.469a11,11,0,0,1,5.324,1.249,7.945,7.945,0,0,1,2.9,2.619,7.776,7.776,0,0,1,1.139,4.595V27.986H20.009Zm131.777,0h-4.919V9.161a6.974,6.974,0,0,0-1.5-4.619,3.88,3.88,0,0,0-6.457,0,6.974,6.974,0,0,0-1.5,4.619V27.986H131.19V9.161a6.967,6.967,0,0,0-1.5-4.619,5.267,5.267,0,0,0-4.283-1.8h-3.677V27.986h-6.213V.416h12.046a11.784,11.784,0,0,1,4.352.816,9.229,9.229,0,0,1,2.4,1.38,9.278,9.278,0,0,1,2.389-1.38,11.729,11.729,0,0,1,4.375-.816q.235,0,.467.01c.132,0,.263-.01.4-.01.214,0,.426.008.638.018.217-.01.435-.018.656-.018a12.075,12.075,0,0,1,3.692.569,9.507,9.507,0,0,1,3.145,1.679,8.374,8.374,0,0,1,2.188,2.717,7.881,7.881,0,0,1,.82,3.632V27.986Z" transform="translate(50 28.584)" fill="#ed7c00"/>
    </g>
    <g id="Group_141398" data-name="Group 141398" transform="translate(-3962.9 -16381)">
      <g id="Group_141397" data-name="Group 141397" transform="translate(0 0)" clip-path="url(#clip-path)">
        <path id="Path_184344" data-name="Path 184344" d="M2.273,29.49a2.263,2.263,0,0,1-1.674-.6A2.192,2.192,0,0,1,0,27.259a2.043,2.043,0,0,1,.6-1.612,2.42,2.42,0,0,1,1.674-.537H6.9V4.818H9.464L3.389,8.5a2.252,2.252,0,0,1-1.471.351A2.012,2.012,0,0,1,.765,8.269,2.4,2.4,0,0,1,.124,7.132a2.158,2.158,0,0,1,.1-1.343A2.311,2.311,0,0,1,1.281,4.653l5.7-3.43A13.174,13.174,0,0,1,8.637.375,3.936,3.936,0,0,1,10.167.024,2.2,2.2,0,0,1,11.613.5a1.9,1.9,0,0,1,.579,1.55V25.11h4.215a2.42,2.42,0,0,1,1.674.537,2.055,2.055,0,0,1,.6,1.612,2.192,2.192,0,0,1-.6,1.653,2.31,2.31,0,0,1-1.674.579Z" transform="translate(0 0.058)" fill="#112a63"/>
        <path id="Path_184345" data-name="Path 184345" d="M17.125,29.962a9.032,9.032,0,0,1-7.894-3.905Q6.509,22.151,6.5,14.919a23.92,23.92,0,0,1,1.223-8.2,10.266,10.266,0,0,1,3.592-5.021A9.741,9.741,0,0,1,17.125,0a9.108,9.108,0,0,1,7.918,3.8q2.7,3.8,2.7,11.076a24.23,24.23,0,0,1-1.219,8.2,10.73,10.73,0,0,1-3.575,5.125,9.468,9.468,0,0,1-5.827,1.756m0-4.339a4.4,4.4,0,0,0,4.153-2.6q1.343-2.6,1.347-8.141T21.279,6.84a4.416,4.416,0,0,0-4.153-2.5A4.419,4.419,0,0,0,13,6.84q-1.369,2.5-1.367,8.038T13,23.019a4.4,4.4,0,0,0,4.129,2.6" transform="translate(15.895 -0.001)" fill="#112a63"/>
        <path id="Path_184346" data-name="Path 184346" d="M24.325,29.962a9.032,9.032,0,0,1-7.894-3.905Q13.709,22.151,13.7,14.919a23.92,23.92,0,0,1,1.223-8.2,10.266,10.266,0,0,1,3.592-5.021A9.741,9.741,0,0,1,24.325,0a9.108,9.108,0,0,1,7.918,3.8q2.7,3.8,2.7,11.076a24.23,24.23,0,0,1-1.219,8.2,10.73,10.73,0,0,1-3.575,5.125,9.468,9.468,0,0,1-5.827,1.756m0-4.339a4.4,4.4,0,0,0,4.153-2.6q1.343-2.6,1.347-8.141T28.479,6.84a4.416,4.416,0,0,0-4.153-2.5A4.419,4.419,0,0,0,20.2,6.84q-1.369,2.5-1.367,8.038T20.2,23.019a4.4,4.4,0,0,0,4.129,2.6" transform="translate(33.492 -0.001)" fill="#112a63"/>
      </g>
    </g>
  </g>
</svg>
