<svg xmlns="http://www.w3.org/2000/svg" width="299.001" height="47.282" viewBox="0 0 299.001 47.282">
  <g id="Group_140726" data-name="Group 140726" transform="translate(63.994 0)">
    <path id="Path_95873" data-name="Path 95873" d="M286.007,1.645l0,5.809,5.808,0,0-5.809ZM307.215,4.02h-1l0,1.8,5.9,0v-1.8h-2.185c-.8,0-1.186-.347-1.185-1.034,0-.842.385-1.262,1.111-1.262h1.528V0h-1.336a2.93,2.93,0,0,0-3.068,3.026,2.314,2.314,0,0,0,.235.995m-80.35,25.456L226.87,17.5c0-4.384,5.215-4.025,5.215-4.025l-.007,11.5c0,.118,0,.236,0,.352-.221,5.281-5.21,4.15-5.21,4.15M213.94,35.038l15.172.007a8.358,8.358,0,0,0,8.3-7.357c0-1.512.19-20.078.19-20.078l-8,.057c-6.167.231-8.18,6.137-8.182,7.937s-.007,13.748-.007,13.748l-8.655,0c-7.7,0-7.469,7.821-7.469,7.821l0,8.061,5.569,1.9,0-7.941c0-4.551,3.084-4.148,3.084-4.148m64.243-33.4,0,5.809,5.809,0,0-5.809Zm28.331,32.491,5.811,0,.008-26.315-5.807,2.491ZM280.546,20.254s-.473-3.2,3.321-3.2l2.729.118-.005,10.312s-6.047-1.422-6.045-7.23M241.8,34.216l50.123.022.009-22.753-10.31,0c-6.755.823-7.717,7.844-6.644,12.086a15.3,15.3,0,0,0,2.136,4.384l-29.5-.012s.009-19.789.009-20.147l-5.809,2.49Zm54.892-19.411-.012,23.944c0,2.965-4.979,2.963-4.979,2.963l0,5.57s10.788-.472,10.789-8.886c0,0,.012-25.721.012-26.08Z" transform="translate(-77.326 0)" fill="#f38020"/>
    <path id="Path_95874" data-name="Path 95874" d="M223.19,70.3v-.166c0-.563.2-.75,1.389-.749h2.9v1.68h-2.946c-1.212,0-1.346-.246-1.346-.764m5.3.84,0-2.876c0-1.724-1.388-1.867-2.811-1.867l-2.839,0-.007.848H225.6c1.408,0,1.879.149,1.879,1v.29l-2.86,0c-1.432,0-2.346.1-2.347,1.4v.349c0,1.158.408,1.631,1.648,1.631l3.557.006c.508,0,1.014-.092,1.014-.776" transform="translate(-83.725 -25.011)" fill="#6e6f71"/>
    <path id="Path_95875" data-name="Path 95875" d="M279.009,70.328v-.165c0-.563.2-.751,1.389-.75h2.9v1.679l-2.945,0c-1.214,0-1.346-.246-1.346-.763m5.3.84V68.292c0-1.723-1.386-1.867-2.808-1.867h-2.842l-.009.847h2.768c1.409,0,1.879.147,1.879,1v.292H280.44c-1.429,0-2.344.1-2.346,1.4v.347c0,1.161.407,1.633,1.649,1.634l3.557.005c.507,0,1.012-.093,1.013-.777" transform="translate(-104.751 -25.021)" fill="#6e6f71"/>
    <path id="Path_95876" data-name="Path 95876" d="M298.932,70.336V70.17c0-.562.2-.75,1.388-.749h2.9V71.1h-2.946c-1.213,0-1.345-.245-1.345-.763m5.305.839V68.3c0-1.724-1.386-1.867-2.809-1.867h-2.842l-.008.847h2.768c1.41,0,1.879.148,1.879,1v.29h-2.862c-1.431,0-2.343.1-2.343,1.4v.348c0,1.158.405,1.632,1.645,1.634l3.559,0c.506,0,1.014-.09,1.014-.777" transform="translate(-112.257 -25.024)" fill="#6e6f71"/>
    <path id="Path_95877" data-name="Path 95877" d="M260.635,67.268l2.943,0v1.678l-2.9,0c-1.186,0-1.387-.189-1.387-.755l0-.163c0-.517.132-.76,1.344-.76m3.955,3.987,0-3.964c0-.955-1.015-.875-1.015-.875h-3.557c-1.24,0-1.646.472-1.649,1.633V68.4c0,1.3.914,1.4,2.344,1.4h2.862v1.263l0,0-4.808,0,.005.85,4.888,0s.932.055.932-.655" transform="translate(-97.323 -25.017)" fill="#6e6f71"/>
    <path id="Path_95878" data-name="Path 95878" d="M242.214,71.915s0-3.782,0-4.049a1.478,1.478,0,0,1,1.469-1.469h2.191v.845H244.09a.839.839,0,0,0-.858.9l0,3.774Z" transform="translate(-91.236 -25.01)" fill="#6e6f71"/>
    <path id="Path_95879" data-name="Path 95879" d="M328.1,71.905V67.711c0-1.468-1.249-1.394-1.909-1.4l-6.861,0c-1.983,0-1.765,1.321-1.795,1.834l0,3.753,1,0,.01-3.988c0-.541.156-.584.593-.584h2.584c.439,0,.588.042.588.585V71.9h1.006l.006-3.986c0-.543.152-.584.588-.584h2.585c.436,0,.592.042.592.586l0,3.985Z" transform="translate(-119.606 -24.979)" fill="#6e6f71"/>
    <g id="Group_140730" data-name="Group 140730" transform="translate(-10414.994 12705.256)">
      <path id="Path_95851" data-name="Path 95851" d="M4.994,24.957A11.1,11.1,0,0,1,1.005,23.1a2.485,2.485,0,0,1-.772-.833A2.581,2.581,0,0,1,.557,19.59a1.63,1.63,0,0,1,1.276-.673,2.47,2.47,0,0,1,.771.124,4.879,4.879,0,0,1,.917.443,12.218,12.218,0,0,0,3.127,1.4,12.878,12.878,0,0,0,3.485.443,6.948,6.948,0,0,0,3.63-.779,2.479,2.479,0,0,0,1.257-2.232,2,2,0,0,0-1.168-1.771A15.16,15.16,0,0,0,9.7,15.269a23.167,23.167,0,0,1-5.336-1.63,6.878,6.878,0,0,1-2.911-2.373A6.19,6.19,0,0,1,.538,7.83,6.633,6.633,0,0,1,1.85,3.808a8.677,8.677,0,0,1,3.629-2.8A12.969,12.969,0,0,1,10.708,0a13.5,13.5,0,0,1,8.408,2.515,2.84,2.84,0,0,1,.773.868,2.3,2.3,0,0,1,.234,1.08,2.374,2.374,0,0,1-.557,1.56,1.63,1.63,0,0,1-1.276.672,2.463,2.463,0,0,1-.736-.106,5.129,5.129,0,0,1-.953-.46,15.2,15.2,0,0,0-2.713-1.382,9.157,9.157,0,0,0-3.143-.461,6.2,6.2,0,0,0-3.451.833A2.6,2.6,0,0,0,6.036,7.4a2.033,2.033,0,0,0,.486,1.4,4.026,4.026,0,0,0,1.617.975,24.917,24.917,0,0,0,3.217.886q4.887,1.061,7.024,2.727a5.479,5.479,0,0,1,2.139,4.57,6.586,6.586,0,0,1-1.276,4,8.214,8.214,0,0,1-3.593,2.691,13.985,13.985,0,0,1-5.373.957,20.321,20.321,0,0,1-5.282-.656" transform="translate(10351 -12695.75)" fill="#112a63"/>
      <path id="Path_95852" data-name="Path 95852" d="M33,24.054a10.559,10.559,0,0,1-4.312-4.463,14.555,14.555,0,0,1-1.51-6.8A14.451,14.451,0,0,1,28.691,6,10.583,10.583,0,0,1,33,1.56,13.235,13.235,0,0,1,39.543,0a13.193,13.193,0,0,1,8.121,2.551,2.68,2.68,0,0,1,.755.851,2.336,2.336,0,0,1,.216,1.062,2.45,2.45,0,0,1-.521,1.577,1.575,1.575,0,0,1-1.275.655,2.814,2.814,0,0,1-.881-.124,3.452,3.452,0,0,1-.845-.442A12.1,12.1,0,0,0,42.454,4.8a8.252,8.252,0,0,0-2.623-.408A6.352,6.352,0,0,0,34.638,6.5Q32.894,8.609,32.9,12.789q0,8.43,6.935,8.431a7.7,7.7,0,0,0,2.515-.408,15.921,15.921,0,0,0,2.766-1.328,5.235,5.235,0,0,1,.9-.443,2.546,2.546,0,0,1,.826-.124,1.577,1.577,0,0,1,1.275.655,2.453,2.453,0,0,1,.521,1.577,2.285,2.285,0,0,1-.234,1.08,2.625,2.625,0,0,1-.736.833,13.193,13.193,0,0,1-8.121,2.551A13.234,13.234,0,0,1,33,24.054" transform="translate(10347.819 -12695.75)" fill="#112a63"/>
      <path id="Path_95853" data-name="Path 95853" d="M77.108,23.359a1.985,1.985,0,0,1-.808,1.629,3.037,3.037,0,0,1-3.217.319,2.693,2.693,0,0,1-1.077-.992l-4.743-6.942a4.231,4.231,0,0,0-1.294-1.33,3.335,3.335,0,0,0-1.726-.407h-2.91v7.156a2.745,2.745,0,0,1-.737,2.019,2.679,2.679,0,0,1-1.994.744,2.79,2.79,0,0,1-2.048-.744,2.707,2.707,0,0,1-.755-2.019V2.955a2.565,2.565,0,0,1,.683-1.913,2.65,2.65,0,0,1,1.94-.673h9.019Q71.9.369,74.18,2.3a6.9,6.9,0,0,1,2.283,5.58,7.148,7.148,0,0,1-1.618,4.782,7.8,7.8,0,0,1-4.564,2.516,4.776,4.776,0,0,1,1.922.831A7.2,7.2,0,0,1,73.839,17.8l2.732,4.039a2.688,2.688,0,0,1,.537,1.522M70.1,10.625a3.085,3.085,0,0,0,1.077-2.6A3.076,3.076,0,0,0,70.1,5.4a5.848,5.848,0,0,0-3.486-.815H61.262v6.872h5.353a5.75,5.75,0,0,0,3.486-.832" transform="translate(10343.2 -12695.801)" fill="#112a63"/>
      <path id="Path_95854" data-name="Path 95854" d="M85.224,24.67a2.563,2.563,0,0,1-.683-1.913V2.955a2.565,2.565,0,0,1,.683-1.913,2.651,2.651,0,0,1,1.94-.673H99.885q2.658,0,2.659,2.125,0,2.162-2.659,2.161H90V10.5h9.163q2.66,0,2.659,2.161,0,2.124-2.659,2.125H90v6.269h9.883q2.658,0,2.659,2.161,0,2.125-2.659,2.125H87.164a2.644,2.644,0,0,1-1.94-.673" transform="translate(10339.459 -12695.801)" fill="#112a63"/>
      <path id="Path_95855" data-name="Path 95855" d="M109.537,24.67a2.563,2.563,0,0,1-.683-1.913V2.955a2.565,2.565,0,0,1,.683-1.913,2.651,2.651,0,0,1,1.94-.673H124.2q2.658,0,2.659,2.125,0,2.162-2.659,2.161h-9.883V10.5h9.163q2.66,0,2.659,2.161,0,2.124-2.659,2.125h-9.163v6.269H124.2q2.658,0,2.659,2.161,0,2.125-2.659,2.125H111.477a2.644,2.644,0,0,1-1.94-.673" transform="translate(10336.146 -12695.801)" fill="#112a63"/>
      <path id="Path_95856" data-name="Path 95856" d="M164.671,24.669A2.584,2.584,0,0,1,164,22.756V2.955a2.587,2.587,0,0,1,.673-1.913,2.591,2.591,0,0,1,1.913-.673h12.54q2.62,0,2.621,2.125,0,2.162-2.621,2.161h-9.742V10.5h9.033q2.622,0,2.621,2.161,0,2.124-2.621,2.125h-9.033v6.269h9.742q2.62,0,2.621,2.161,0,2.125-2.621,2.125h-12.54a2.584,2.584,0,0,1-1.913-.673" transform="translate(10334.002 -12695.801)" fill="#112a63"/>
      <path id="Path_95857" data-name="Path 95857" d="M209.316,23.359a2,2,0,0,1-.8,1.629,2.958,2.958,0,0,1-3.171.319,2.664,2.664,0,0,1-1.062-.992l-4.676-6.942a4.2,4.2,0,0,0-1.276-1.33,3.247,3.247,0,0,0-1.7-.407h-2.869v7.155a2.767,2.767,0,0,1-.726,2.019,2.621,2.621,0,0,1-1.966.744,2.567,2.567,0,0,1-2.763-2.763V2.955a2.587,2.587,0,0,1,.673-1.913A2.59,2.59,0,0,1,190.9.369h8.891q4.391,0,6.642,1.93a6.95,6.95,0,0,1,2.25,5.58,7.213,7.213,0,0,1-1.595,4.782,7.654,7.654,0,0,1-4.5,2.516,4.672,4.672,0,0,1,1.9.831,7.161,7.161,0,0,1,1.612,1.789l2.692,4.039a2.708,2.708,0,0,1,.53,1.522M202.41,10.624a3.105,3.105,0,0,0,1.062-2.6A3.1,3.1,0,0,0,202.41,5.4a5.7,5.7,0,0,0-3.437-.815h-5.278v6.872h5.278a5.606,5.606,0,0,0,3.437-.832" transform="translate(10330.689 -12695.801)" fill="#112a63"/>
      <g id="Group_140731" data-name="Group 140731" transform="translate(1.031)">
        <path id="Path_95858" data-name="Path 95858" d="M155.5,22.978a2.769,2.769,0,0,1-.749,2.02,2.6,2.6,0,0,1-1.952.769,2.659,2.659,0,0,1-2.117-.93L138.458,9.5V22.978a2.854,2.854,0,0,1-.712,2.02,2.484,2.484,0,0,1-1.916.769A2.538,2.538,0,0,1,133.9,25a2.807,2.807,0,0,1-.731-2.02V2.917a2.724,2.724,0,0,1,.749-1.984,2.6,2.6,0,0,1,1.952-.769,2.49,2.49,0,0,1,2.08.93l12.225,15.233" transform="translate(10332.516 -12695.773)" fill="#112a63"/>
        <path id="Path_95859" data-name="Path 95859" d="M145.233,18.132l2.364,3.045,3.142-3.761-2.35-2.956Z" transform="translate(10330.874 -12697.719)" fill="#fcfcfc"/>
        <path id="Path_184305" data-name="Path 184305" d="M145.141,17.92l3.635,4.565,3.078-4-3.729-4.655Z" transform="translate(10330.984 -12697.736)" fill="#fcfcfc"/>
        <path id="Path_184307" data-name="Path 184307" d="M138,9.6l.3,14.65a2.927,2.927,0,0,1-.691,2.029,2.371,2.371,0,0,1-1.86.773,2.421,2.421,0,0,1-1.877-.773,2.877,2.877,0,0,1-.709-2.029l.3-8.555" transform="translate(10350.134 -12697.057)" fill="#112a63"/>
        <path id="Path_184310" data-name="Path 184310" d="M147.736,20.392v1.681l4.8-6.284-.179-1.162Z" transform="translate(10334.793 -12702.977)" fill="#fcfcfc"/>
        <path id="Path_184311" data-name="Path 184311" d="M26.932,1.6,27.3,6.28a1.082,1.082,0,1,1-2.156.188V6.46l-.284-2.05L8.627,23.9,7.37,16.474,5.008,22.559l-.53,1.115-.29.418a2.476,2.476,0,0,1-3.543-.106A2.969,2.969,0,0,1,0,22.291c-.022-.275.067-1.3.067-1.3L.7,22.329s.534,1.229.564.753l1.658-3.459,4.064-8.236a2.033,2.033,0,0,1,2.9-.24,2.105,2.105,0,0,1,.718,1.426l.291,3.654,6.708-8.035.792-.948L22.332,2.53l-1.657.138a1.09,1.09,0,0,1-1.168-1.01L19.5,1.575A1.1,1.1,0,0,1,20.494.388l4.6-.382a1.722,1.722,0,0,1,1.846,1.6" transform="translate(10464.968 -12694.42) rotate(-3)" fill="#f38020" stroke="#f38020" stroke-width="1"/>
      </g>
    </g>
  </g>
</svg>
