<svg xmlns="http://www.w3.org/2000/svg" xmlns:xlink="http://www.w3.org/1999/xlink" width="211.044" height="48.956" viewBox="0 0 211.044 48.956">
  <defs>
    <clipPath id="clip-path">
      <rect id="Rectangle_28604" data-name="Rectangle 28604" width="91.461" height="40.042" fill="#112a63"/>
    </clipPath>
  </defs>
  <g id="Group_143964" data-name="Group 143964" transform="translate(9839.923 13458)">
    <g id="Group_141403" data-name="Group 141403" transform="translate(-9739.715 -13458)">
      <g id="Group_113653" data-name="Group 113653" transform="translate(0 0)">
        <g id="Group_47566" data-name="Group 47566">
          <g id="Group_143962" data-name="Group 143962">
            <path id="Path_91665" data-name="Path 91665" d="M83.579,1.7l0,6.015,6.014,0,0-6.015Zm21.958,2.46h-1.032l0,1.864,6.107,0V4.164h-2.263c-.831,0-1.228-.359-1.227-1.071,0-.872.4-1.307,1.151-1.307h1.582V0H108.47a3.034,3.034,0,0,0-3.177,3.133,2.4,2.4,0,0,0,.243,1.03M22.344,30.52l.006-12.4c0-4.54,5.4-4.167,5.4-4.167l-.007,11.908c0,.122,0,.244,0,.364-.228,5.468-5.394,4.3-5.394,4.3M8.962,36.278l15.709.007a8.654,8.654,0,0,0,8.592-7.617c0-1.565.2-20.789.2-20.789l-8.285.059c-6.385.239-8.47,6.354-8.472,8.218S16.7,30.39,16.7,30.39l-8.961,0c-7.976,0-7.733,8.1-7.733,8.1l0,8.347,5.766,1.963,0-8.222c0-4.712,3.193-4.294,3.193-4.294M75.478,1.7l0,6.014,6.015,0,0-6.014Zm29.333,33.641,6.016,0L110.836,8.1l-6.013,2.579ZM77.925,20.97s-.489-3.315,3.439-3.313l2.825.122-.005,10.677s-6.261-1.473-6.259-7.486M37.8,35.427l51.9.023.009-23.558-10.675,0c-6.994.852-7.99,8.121-6.879,12.513a15.845,15.845,0,0,0,2.212,4.54L43.82,28.928s.01-20.489.01-20.86l-6.014,2.578Zm56.834-20.1-.012,24.791c0,3.07-5.155,3.067-5.155,3.067l0,5.767s11.169-.489,11.171-9.2c0,0,.013-26.631.013-27Z" transform="translate(0 0)" fill="#f38020"/>
            <g id="Group_141401" data-name="Group 141401" transform="translate(10.965 42.797)">
              <path id="Path_91666" data-name="Path 91666" d="M17.938,70.441v-.172c0-.583.209-.776,1.438-.776h3.006v1.74H19.331c-1.255,0-1.393-.255-1.393-.791m5.491.87,0-2.978c0-1.785-1.437-1.933-2.911-1.934l-2.94,0-.008.878h2.864c1.458,0,1.945.154,1.945,1.038v.3l-2.962,0c-1.482,0-2.429.1-2.43,1.446v.361c0,1.2.423,1.689,1.706,1.689l3.683.006c.526,0,1.049-.095,1.049-.8" transform="translate(-16.99 -66.343)" fill="#6e6f71"/>
              <path id="Path_91667" data-name="Path 91667" d="M73.758,70.466v-.171c0-.583.207-.778,1.438-.777h3v1.739l-3.049,0c-1.257,0-1.393-.254-1.393-.79m5.491.869V68.358c0-1.784-1.435-1.934-2.907-1.934H73.4l-.009.877h2.866c1.459,0,1.946.152,1.946,1.035v.3H75.24c-1.48,0-2.427.1-2.429,1.446v.359c0,1.2.421,1.691,1.707,1.692l3.683.005c.525,0,1.047-.1,1.049-.8" transform="translate(-36.785 -66.353)" fill="#6e6f71"/>
              <path id="Path_91668" data-name="Path 91668" d="M93.681,70.475V70.3c0-.582.209-.777,1.437-.776h3.006v1.738H95.074c-1.256,0-1.393-.254-1.393-.79m5.493.869V68.367c0-1.785-1.435-1.934-2.908-1.934H93.323l-.008.877H96.18c1.46,0,1.945.154,1.945,1.037v.3H95.162c-1.481,0-2.426.1-2.426,1.446v.36c0,1.2.419,1.69,1.7,1.692l3.684,0c.524,0,1.05-.094,1.05-.8" transform="translate(-43.851 -66.355)" fill="#6e6f71"/>
              <path id="Path_91669" data-name="Path 91669" d="M55.431,67.3l3.047,0v1.737l-3.006,0c-1.227,0-1.436-.2-1.436-.782l0-.169c0-.535.137-.787,1.392-.787m4.095,4.128,0-4.1c0-.989-1.051-.905-1.051-.905H54.8c-1.284,0-1.7.489-1.708,1.691v.36c0,1.342.947,1.448,2.427,1.448h2.964v1.308l-.005,0-4.978,0,.005.88,5.061,0s.965.057.965-.678" transform="translate(-29.791 -66.349)" fill="#6e6f71"/>
              <path id="Path_91670" data-name="Path 91670" d="M36.93,72.11s0-3.916,0-4.192A1.53,1.53,0,0,1,38.452,66.4H40.72v.875H38.872a.869.869,0,0,0-.889.936l0,3.907Z" transform="translate(-24.061 -66.343)" fill="#6e6f71"/>
              <path id="Path_91671" data-name="Path 91671" d="M123.188,72.1V67.761c0-1.52-1.293-1.444-1.977-1.446l-7.1,0c-2.054,0-1.827,1.368-1.858,1.9l0,3.886,1.038,0,.01-4.129c0-.56.161-.6.614-.6h2.675c.454,0,.609.043.609.606V72.1h1.042l.006-4.127c0-.562.157-.6.609-.6h2.676c.451,0,.612.044.612.607l0,4.126Z" transform="translate(-50.77 -66.313)" fill="#6e6f71"/>
            </g>
          </g>
        </g>
      </g>
    </g>
    <g id="Group_143963" data-name="Group 143963" transform="translate(-9839.923 -13454)">
      <g id="Group_141397" data-name="Group 141397" transform="translate(0 0)" clip-path="url(#clip-path)">
        <path id="Path_184344" data-name="Path 184344" d="M3.038,39.4A3.024,3.024,0,0,1,.8,38.6,2.93,2.93,0,0,1,0,36.421a2.73,2.73,0,0,1,.8-2.154,3.234,3.234,0,0,1,2.237-.718H9.223V6.431h3.424L4.529,11.346a3.01,3.01,0,0,1-1.965.469,2.689,2.689,0,0,1-1.542-.773A3.208,3.208,0,0,1,.166,9.524,2.884,2.884,0,0,1,.3,7.729,3.089,3.089,0,0,1,1.712,6.21L9.334,1.626A17.606,17.606,0,0,1,11.543.493,5.26,5.26,0,0,1,13.587.024,2.945,2.945,0,0,1,15.52.659a2.533,2.533,0,0,1,.773,2.071V33.549h5.633a3.234,3.234,0,0,1,2.237.718,2.746,2.746,0,0,1,.8,2.154,2.929,2.929,0,0,1-.8,2.209,3.087,3.087,0,0,1-2.237.773Z" transform="translate(0 0.086)" fill="#112a63"/>
        <path id="Path_184345" data-name="Path 184345" d="M20.7,40.042q-6.9,0-10.549-5.219T6.5,19.938A31.966,31.966,0,0,1,8.138,8.975a13.72,13.72,0,0,1,4.8-6.71A13.018,13.018,0,0,1,20.7,0q6.966,0,10.581,5.081t3.613,14.8a32.381,32.381,0,0,1-1.629,10.963,14.34,14.34,0,0,1-4.777,6.849A12.653,12.653,0,0,1,20.7,40.042m0-5.8a5.876,5.876,0,0,0,5.551-3.48q1.795-3.48,1.8-10.88t-1.8-10.742A5.9,5.9,0,0,0,20.7,5.8,5.906,5.906,0,0,0,15.18,9.141q-1.83,3.341-1.827,10.742t1.827,10.88a5.881,5.881,0,0,0,5.518,3.48" transform="translate(23.431 -0.001)" fill="#112a63"/>
        <path id="Path_184346" data-name="Path 184346" d="M27.9,40.042q-6.9,0-10.549-5.219T13.7,19.938A31.966,31.966,0,0,1,15.338,8.975a13.72,13.72,0,0,1,4.8-6.71A13.018,13.018,0,0,1,27.9,0q6.966,0,10.581,5.081t3.613,14.8a32.381,32.381,0,0,1-1.629,10.963,14.34,14.34,0,0,1-4.777,6.849A12.653,12.653,0,0,1,27.9,40.042m0-5.8a5.876,5.876,0,0,0,5.551-3.48q1.795-3.48,1.8-10.88t-1.8-10.742A5.9,5.9,0,0,0,27.9,5.8,5.906,5.906,0,0,0,22.38,9.141q-1.829,3.341-1.827,10.742t1.827,10.88a5.881,5.881,0,0,0,5.518,3.48" transform="translate(49.369 -0.001)" fill="#112a63"/>
      </g>
    </g>
  </g>
</svg>
