<svg xmlns="http://www.w3.org/2000/svg" width="8.226" height="13.999" viewBox="0 0 8.226 13.999">
  <path id="Path_65076_-_Outline" data-name="Path 65076 - Outline" d="M9.585,0h0a.967.967,0,0,1,.664.256L13.729,3.5a.821.821,0,0,1,0,1.216L10.249,7.97a.989.989,0,0,1-1.328,0,.821.821,0,0,1,0-1.216l1.9-1.777H.935A.9.9,0,0,1,0,4.113a.9.9,0,0,1,.935-.864h9.89l-1.9-1.777a.821.821,0,0,1,0-1.216A.967.967,0,0,1,9.585,0Zm0,7.426a.056.056,0,0,0,.039-.016L13.1,4.161a.067.067,0,0,0,0-.1L9.624.816a.056.056,0,0,0-.078,0,.067.067,0,0,0,0,.1l3.36,3.136H.935a.064.064,0,0,0,0,.128H12.906L9.546,7.314a.067.067,0,0,0,0,.1A.056.056,0,0,0,9.585,7.426Z" transform="translate(0 13.999) rotate(-90)" fill="#ee7421"/>
</svg>