<svg xmlns="http://www.w3.org/2000/svg" width="8.226" height="13.999" viewBox="0 0 8.226 13.999">
  <path id="Path_65076_-_Outline" data-name="Path 65076 - Outline" d="M9.585,8.226h0a.967.967,0,0,0,.664-.256l3.48-3.249a.821.821,0,0,0,0-1.216L10.249.256a.989.989,0,0,0-1.328,0,.821.821,0,0,0,0,1.216l1.9,1.777H.935A.9.9,0,0,0,0,4.113a.9.9,0,0,0,.935.864h9.89l-1.9,1.777a.821.821,0,0,0,0,1.216A.967.967,0,0,0,9.585,8.226ZM9.585.8a.056.056,0,0,1,.039.016L13.1,4.065a.067.067,0,0,1,0,.1L9.624,7.41a.056.056,0,0,1-.078,0,.067.067,0,0,1,0-.1l3.36-3.136H.935a.064.064,0,0,1,0-.128H12.906L9.546.912a.067.067,0,0,1,0-.1A.056.056,0,0,1,9.585.8Z" transform="translate(8.226) rotate(90)" fill="#ee7421"/>
</svg>
