<svg xmlns="http://www.w3.org/2000/svg" width="49.43" height="49.43" viewBox="0 0 49.43 49.43">
  <g id="Icon_ionic-md-close-circle-outline" data-name="Icon ionic-md-close-circle-outline" transform="translate(-3.375 -3.375)">
    <path id="Path_62" data-name="Path 62" d="M28.09,8.366A19.716,19.716,0,1,1,14.14,14.14,19.643,19.643,0,0,1,28.09,8.366m0-4.991A24.715,24.715,0,1,0,52.805,28.09,24.711,24.711,0,0,0,28.09,3.375Z" transform="translate(0)"/>
    <path id="Path_63" data-name="Path 63" d="M35.4,31.943,31.943,35.4l-8.9-8.9-8.9,8.9-3.458-3.458,8.9-8.9-8.9-8.9,3.458-3.458,8.9,8.9,8.9-8.9L35.4,14.145l-8.9,8.9Z" transform="translate(5.046 5.046)"/>
  </g>
</svg>
