<svg xmlns="http://www.w3.org/2000/svg" width="26.235" height="26.235" viewBox="0 0 26.235 26.235">
  <path id="Path_184282" data-name="Path 184282" d="M15.118,2A13.118,13.118,0,1,1,2,15.118,13.106,13.106,0,0,1,15.118,2ZM9.477,20.758a1.306,1.306,0,0,0,1.85,0l3.791-3.791,3.791,3.791a1.308,1.308,0,0,0,1.85-1.85l-3.791-3.791,3.791-3.791a1.308,1.308,0,0,0-1.85-1.85l-3.791,3.791L11.327,9.477a1.308,1.308,0,1,0-1.85,1.85l3.791,3.791L9.477,18.909A1.331,1.331,0,0,0,9.477,20.758Z" transform="translate(-2 -2)" fill="#001f67"/>
</svg>
