<svg xmlns="http://www.w3.org/2000/svg" width="122.703" height="103.94" viewBox="0 0 122.703 103.94">
  <g id="Group_143965" data-name="Group 143965" transform="translate(9807 13201.5)">
    <g id="Group_141401" data-name="Group 141401" transform="translate(35 -74.502)">
      <g id="chart" transform="translate(-9842 -13126.998)">
        <path id="Path_184348" data-name="Path 184348" d="M126.7,96.4V15.676a3.229,3.229,0,0,0-.969-2.26l-6.458-6.458a3.229,3.229,0,0,0-4.585,0L84.726,36.924,74.07,26.332a3.229,3.229,0,0,0-4.585,0L45.977,49.84,35.322,39.248a3.229,3.229,0,0,0-4.585,0L7.229,62.757,4,59.527V109.32H126.7Z" transform="translate(-4 -6.002)" fill="#cfcfce"/>
      </g>
      <g id="Path_184349" data-name="Path 184349" transform="translate(-9842 -13092.301)" fill="#254ba2">
        <path d="M0,18.854l3.213,3.171L19.724,5.536,25.865-.782s1.576-2,3.263-1.856S32.612-.211,32.612-.211l9.294,9.322,21.2-21.085s2.232-3.118,4.468-3.234,4.477,2.771,4.477,2.771l8.691,8.67,6.818-7.03,20.115-20.039s3.021-3.658,5.069-3.82,3.714,2.069,3.714,2.069l6.205,6.237v1.8l-7.546-7.358a2.715,2.715,0,0,0-2.373-1.062c-1.349.269-3.021,2.139-3.021,2.139L80.744-.782,70.1-12.175s-1.271-1.428-2.52-1.138-3.3,2.491-3.3,2.491L41.906,11.846,32.1,2.355S29.668-.39,29.128-.211a43.547,43.547,0,0,0-4,3.277L2.488,25.5,0,22.025Z" stroke="none"/>
        <path d="M 2.488301992416382 25.49901962280273 L -5.101102942717262e-05 22.0253734588623 L -5.101102942717262e-05 18.85407829284668 L 3.212890148162842 22.0253734588623 L 19.72359657287598 5.536078929901123 L 25.86524391174316 -0.7822738885879517 C 25.86524391174316 -0.7822739481925964 27.44110679626465 -2.781453847885132 29.12794876098633 -2.63862681388855 C 30.81465530395508 -2.495803356170654 32.61230087280273 -0.2109797745943069 32.61230087280273 -0.2109797745943069 L 41.90630340576172 9.111372947692871 L 63.10842132568359 -11.9736852645874 C 63.10842132568359 -11.9736852645874 65.34006500244141 -15.09203815460205 67.57618713378906 -15.20803833007812 C 69.81219482421875 -15.32392883300781 72.05277252197266 -12.43745040893555 72.05277252197266 -12.43745040893555 L 80.74418640136719 -3.767568111419678 L 87.56253814697266 -10.79780292510986 L 107.6777114868164 -30.83686256408691 C 107.6777114868164 -30.83686256408691 110.6992416381836 -34.49509811401367 112.7471237182617 -34.6572151184082 C 114.7947235107422 -34.81933212280273 116.4608840942383 -32.58792114257812 116.4608917236328 -32.58792114257812 L 122.6660690307617 -26.35062599182129 L 122.6660690307617 -24.55474472045898 L 115.1200637817383 -31.9130973815918 C 115.1200637817383 -31.9130973815918 114.0956954956055 -33.2446403503418 112.7471237182617 -32.97556686401367 C 111.3984222412109 -32.70650863647461 109.7255935668945 -30.83686256408691 109.7255935668945 -30.83686256408691 L 80.74418640136719 -0.7822738885879517 L 70.09571075439453 -12.17486190795898 C 70.09571075439453 -12.17486190795898 68.82489013671875 -13.60272789001465 67.57618713378906 -13.31250953674316 C 66.32736206054688 -13.02227401733398 64.27242279052734 -10.82133293151855 64.27242279052734 -10.82133293151855 L 41.90630340576172 11.84572601318359 L 32.10053634643555 2.355490922927856 C 32.10053634643555 2.355490922927856 29.6679859161377 -0.389695018529892 29.12794876098633 -0.2109797745943069 C 28.58794975280762 -0.03227389603853226 25.12500762939453 3.066431999206543 25.12500762939453 3.066431999206543 L 2.488301992416382 25.49901962280273 Z" stroke="none" fill="#254ba2"/>
      </g>
      <g id="Path_184350" data-name="Path 184350" transform="translate(-9841.963 -13090.301)" fill="#254ba2">
        <path d="M0,18.854l3.213,3.171L19.724,5.536,25.865-.782s1.576-2,3.263-1.856S32.612-.211,32.612-.211l9.294,9.322,21.2-21.085S65.7-15.8,67.932-15.919s4.121,3.481,4.121,3.481l8.691,8.67,6.818-7.03,20.115-20.039s3.021-4.309,5.069-4.471,3.8,2.756,3.8,2.756l6.115,5.546v2.451l-7.546-7.358a2.715,2.715,0,0,0-2.373-1.062c-1.349.269-3.021,2.139-3.021,2.139L80.744-.782,70.1-12.175s-1.271-1.428-2.52-1.138-3.3,2.491-3.3,2.491L41.906,11.846,32.1,2.355S29.668-.39,29.128-.211a43.547,43.547,0,0,0-4,3.277L2.488,25.5,0,22.025Z" stroke="none"/>
        <path d="M 2.488301992416382 25.49900054931641 L -5.101102942717262e-05 22.02535438537598 L -5.101102942717262e-05 18.85406112670898 L 3.212890148162842 22.02535438537598 L 19.72359657287598 5.536177635192871 L 25.86524391174316 -0.7821750640869141 C 25.86524391174316 -0.7821750640869141 27.44110679626465 -2.781474351882935 29.12794876098633 -2.638645648956299 C 30.81465530395508 -2.495822191238403 32.61230087280273 -0.2108809798955917 32.61230087280273 -0.2108809798955917 L 41.90630340576172 9.111353874206543 L 63.10842132568359 -11.97358703613281 C 63.10842132568359 -11.97358703613281 65.69559478759766 -15.80299854278564 67.93159484863281 -15.91899871826172 C 70.16786956787109 -16.03488540649414 72.05277252197266 -12.43746948242188 72.05277252197266 -12.43746948242188 L 80.74418640136719 -3.767586946487427 L 87.56253814697266 -10.79782199859619 L 107.6777114868164 -30.83688163757324 C 107.6777114868164 -30.83688163757324 110.6992416381836 -35.14546966552734 112.7471237182617 -35.30758666992188 C 114.7949066162109 -35.46969985961914 116.5507736206055 -32.55170440673828 116.5507736206055 -32.55170440673828 L 122.6660690307617 -27.00582122802734 L 122.6660690307617 -24.55464553833008 L 115.1200637817383 -31.91311645507812 C 115.1200637817383 -31.91311454772949 114.0956954956055 -33.24465942382812 112.7471237182617 -32.9755859375 C 111.3984222412109 -32.70652770996094 109.7255935668945 -30.83688163757324 109.7255935668945 -30.83688163757324 L 80.74418640136719 -0.7821750640869141 L 70.09571075439453 -12.17476367950439 C 70.09571075439453 -12.17476367950439 68.82500457763672 -13.60277557373047 67.57618713378906 -13.31252765655518 C 66.32736206054688 -13.02229309082031 64.27242279052734 -10.82123374938965 64.27242279052734 -10.82123374938965 L 41.90630340576172 11.84570693969727 L 32.10053634643555 2.355471849441528 C 32.10053634643555 2.355471849441528 29.66792297363281 -0.38969686627388 29.12794876098633 -0.2108809798955917 C 28.58794975280762 -0.03217509016394615 25.12500762939453 3.066413164138794 25.12500762939453 3.066413164138794 L 2.488301992416382 25.49900054931641 Z" stroke="none" fill="#254ba2"/>
      </g>
    </g>
  </g>
</svg>
