<svg xmlns="http://www.w3.org/2000/svg" width="140.546" height="121.786" viewBox="0 0 140.546 121.786">
  <g id="Group_10" data-name="Group 10" transform="translate(669 -1328)">
    <g id="linecharticon2" transform="translate(-668.93 1327.976)">
      <g id="Group_7" data-name="Group 7">
        <path id="Path_2" data-name="Path 2" d="M1.67,93.14C11.24,78.59,13.2,60.16,21.36,44.75a3.515,3.515,0,0,1,1.47-1.7c1.84-.82,3.34,1.68,3.83,3.66C30.01,60.17,32.02,74.16,38,86.65a1.968,1.968,0,0,0,.84,1.03,1.763,1.763,0,0,0,1.48-.24c6.39-3.3,7.82-11.75,8.49-19q2.8-30.465,5.62-60.94c.12-1.35.85-3.16,2.14-2.8a2.245,2.245,0,0,1,1.08.9c5.7,7.16,11.63,14.85,12.67,23.99.65,5.73-.63,11.92,1.99,17.05a2.3,2.3,0,0,0,1.04,1.17,2.379,2.379,0,0,0,2.12-.52,23.2,23.2,0,0,0,9.84-14.38c.5-2.32.81-4.99,2.73-6.34a10.828,10.828,0,0,1,3.67-1.23c4.29-1.11,7.8-4.35,10.23-8.1s3.94-8.03,5.5-12.24a4.587,4.587,0,0,1,1.19-2.02c1.32-1.09,3.46-.24,4.35,1.24a9.685,9.685,0,0,1,.86,5.05,174.153,174.153,0,0,0,2.66,31.5,3.5,3.5,0,0,0,.7,1.82c1.11,1.2,3.13.27,4.23-.94,6.04-6.64,3.02-18.58,9.37-24.92a35.764,35.764,0,0,1,1.13,17.81c1.04.74,2.16-.84,2.48-2.09q2.715-10.32,5.42-20.63V121.81H-.07V92.41Z" fill="#cfcfce"/>
      </g>
      <g id="Group_9" data-name="Group 9">
        <g id="Group_8" data-name="Group 8">
          <path id="Path_3" data-name="Path 3" d="M5.33,90.87C12.02,80.77,15,68.9,18.94,57.58c.98-2.82,2.02-5.62,3.23-8.35.56-1.27,1.16-2.52,1.79-3.76.15-.29,1.03-1.46.96-1.75l.07-.07a.7.7,0,0,1-.7.14c-.12.16-.07-.57.13.22.11.43.49.87.63,1.33.22.68.36,1.39.53,2.09.4,1.62.77,3.25,1.15,4.88.73,3.19,1.43,6.39,2.18,9.57a119.929,119.929,0,0,0,5.72,18.65c1.17,2.8,2.56,7.54,6.58,6.19a12.972,12.972,0,0,0,6.06-5.04c2.94-4.22,3.76-9.61,4.29-14.6.73-6.92,1.3-13.86,1.95-20.79q1-10.8,2.02-21.59c.33-3.47.65-6.95.98-10.42.15-1.65.31-3.31.46-4.96a15.334,15.334,0,0,0,.27-2.26c.01.07.08-.42.11-.29a1.934,1.934,0,0,1-1.56.17.478.478,0,0,0,.24.34,10.037,10.037,0,0,0,1.3,1.62c.44.55.87,1.09,1.3,1.64.9,1.16,1.78,2.34,2.62,3.54a44.526,44.526,0,0,1,4.55,7.89,24.421,24.421,0,0,1,1.97,7.87c.22,3.15-.04,6.33.28,9.47.28,2.74.85,6.43,3.02,8.37,2.84,2.54,6.45-.5,8.61-2.45,4.34-3.91,6.62-8.95,7.87-14.54a6.52,6.52,0,0,1,.92-2.62c.78-1,2.46-.98,3.59-1.3a18.272,18.272,0,0,0,7.55-4.5c4.58-4.39,6.86-10.46,9.02-16.28a4.123,4.123,0,0,1,.42-1.04c-.19.21-.35-.28.09.09a3.272,3.272,0,0,1,.97,2.72c.11,3.53.03,7.05.21,10.58a168.626,168.626,0,0,0,2.39,21.14,5.5,5.5,0,0,0,2.16,3.95,4.843,4.843,0,0,0,4.67.09c2.4-1.1,4.01-3.56,5.03-5.92,1.98-4.56,2.1-9.57,3.46-14.3a12,12,0,0,1,2.89-5.33c-1.39-.37-2.79-.74-4.18-1.1a31.942,31.942,0,0,1,1.11,15.79A2.56,2.56,0,0,0,129,35.48c5.39,2.82,6.67-5.67,7.54-8.93l3.84-14.4c.83-3.11-3.99-4.44-4.82-1.33q-1.485,5.55-2.96,11.09-.72,2.715-1.45,5.43c-.25.94-.49,1.89-.76,2.83-.07.25-.18.53-.23.79a.477.477,0,0,0-.19.3c-.53.09-.01.06,1.54-.1.38.94.77,1.88,1.15,2.82a37.133,37.133,0,0,0-1.11-18.45,2.526,2.526,0,0,0-4.18-1.1c-3.64,3.69-4.58,8.74-5.44,13.64a35.655,35.655,0,0,1-1.7,6.99,11.827,11.827,0,0,1-1.37,2.55,5.536,5.536,0,0,1-.92,1.07,6.346,6.346,0,0,0-.62.37.4.4,0,0,0,.48.44c-.57.11-2.36-18.51-2.45-20.17-.19-3.43-.26-6.87-.25-10.3.01-3.15-.42-6.6-3.46-8.29a5.052,5.052,0,0,0-7.3,2.57c-1.31,2.99-2.25,6.11-3.73,9.03a22.921,22.921,0,0,1-4.98,6.81,14.031,14.031,0,0,1-3.07,2.1,18.751,18.751,0,0,1-3.88,1.2c-3.2.85-5.02,3.12-5.82,6.25a32.387,32.387,0,0,1-2.23,7.19,20.828,20.828,0,0,1-5.09,6.34,14.331,14.331,0,0,1-1.33.99c-.04.03-.68.4-.69.44-.04.23.81.41.86.32a16.531,16.531,0,0,0-.7-1.62,14.418,14.418,0,0,1-.57-2.44c-.45-3.04-.17-6.15-.31-9.2a29.4,29.4,0,0,0-1.76-8.95C68.89,15.89,65.24,10.85,61.39,6a14.75,14.75,0,0,0-2.8-3.19,3.691,3.691,0,0,0-4.62.25,6.026,6.026,0,0,0-1.73,3.62c-.27,1.85-.37,3.74-.55,5.6q-1,10.665-2,21.34t-2,21.34C47.14,60.87,47,67,45.6,72.79a17.578,17.578,0,0,1-2.75,6.48,9.277,9.277,0,0,1-1.81,1.84c-.27.21-1.26.59-1.42.86.44.14.87.29,1.31.43-.12-.23-.24-.47-.35-.71-.2-.41-.39-.82-.58-1.24a102.977,102.977,0,0,1-5.91-18.37c-.79-3.25-1.51-6.52-2.25-9.79-.69-3.04-1.14-6.37-2.33-9.26-1.12-2.73-3.84-5.36-6.96-3.74a6.925,6.925,0,0,0-2.72,3.27c-.74,1.42-1.42,2.86-2.07,4.32C12.9,57.91,10.45,69.86,5.27,80.75a62.594,62.594,0,0,1-4.26,7.58c-1.77,2.71,2.55,5.22,4.32,2.54Z" fill="#9ac6e6"/>
        </g>
      </g>
    </g>
  </g>
</svg>
