<svg xmlns="http://www.w3.org/2000/svg" width="17.393" height="15.812" viewBox="0 0 17.393 15.812">
  <g id="svgexport-17_14_" data-name="svgexport-17 (14)" transform="translate(0)">
    <path id="Path_65014" data-name="Path 65014" d="M5.744,4.372A2.372,2.372,0,1,0,3.372,6.743,2.372,2.372,0,0,0,5.744,4.372ZM17.6,5.162H8.115a.791.791,0,1,1,0-1.581H17.6a.791.791,0,1,1,0,1.581ZM12.859,7.534a2.372,2.372,0,0,1,2.229,1.581H17.6a.791.791,0,1,1,0,1.581H15.088a2.372,2.372,0,1,1-2.229-3.162ZM1.791,9.115H8.115a.791.791,0,1,1,0,1.581H1.791a.791.791,0,1,1,0-1.581Zm9.487,5.534H17.6a.791.791,0,1,1,0,1.581H11.278a.791.791,0,1,1,0-1.581Zm-9.487,0H4.3a2.372,2.372,0,1,1,0,1.581H1.791a.791.791,0,1,1,0-1.581Z" transform="translate(-1 -2)" fill="#f38020"/>
  </g>
</svg>
