<svg xmlns="http://www.w3.org/2000/svg" width="14.25" height="16.116" viewBox="0 0 14.25 16.116">
  <g id="svgexport-17_1_" data-name="svgexport-17 (1)" transform="translate(0 -0.003)">
    <path id="Path_95803" data-name="Path 95803" d="M8.906,8.733a.636.636,0,0,0-.594.671V12.09a.637.637,0,0,1-.594.671H5.937V2.689a1.352,1.352,0,0,0-.809-1.277l-.176-.067H7.719a.637.637,0,0,1,.594.672V4.032a.6.6,0,1,0,1.187,0V2.018A1.911,1.911,0,0,0,7.719,0H1.336a.418.418,0,0,0-.063.015C1.244.015,1.217,0,1.188,0A1.274,1.274,0,0,0,0,1.346V13.433A1.352,1.352,0,0,0,.809,14.71l3.573,1.347a1.1,1.1,0,0,0,.368.062,1.274,1.274,0,0,0,1.187-1.343V14.1H7.719A1.911,1.911,0,0,0,9.5,12.09V9.4a.636.636,0,0,0-.594-.671Zm0,0" fill="#f38020"/>
    <path id="Path_95804" data-name="Path 95804" d="M283.689,109.549l-2.375-2.686a.545.545,0,0,0-.647-.146.679.679,0,0,0-.366.621v2.015h-2.375a.677.677,0,0,0,0,1.343H280.3v2.015a.679.679,0,0,0,.366.621.545.545,0,0,0,.647-.146l2.375-2.686A.734.734,0,0,0,283.689,109.549Zm0,0" transform="translate(-269.613 -103.306)" fill="#f38020"/>
  </g>
</svg>
