<svg xmlns="http://www.w3.org/2000/svg" width="13.189" height="18.269" viewBox="0 0 13.189 18.269">
  <path id="Path_95802" data-name="Path 95802" d="M58.912,13.7H55.486a.586.586,0,0,0-.571.571V17.7a.585.585,0,0,0,.571.571h3.425a.586.586,0,0,0,.571-.571V14.272a.586.586,0,0,0-.571-.571Zm4.5-10.254a5.917,5.917,0,0,0-1.513-1.82A7.737,7.737,0,0,0,59.811.442,6.4,6.4,0,0,0,57.513,0a7.29,7.29,0,0,0-6.622,3.8.563.563,0,0,0-.079.4.555.555,0,0,0,.221.357l2.341,1.784a.684.684,0,0,0,.357.114.555.555,0,0,0,.443-.228A9.735,9.735,0,0,1,55.7,4.581a2.7,2.7,0,0,1,1.541-.414,2.642,2.642,0,0,1,1.534.457A1.29,1.29,0,0,1,59.44,5.68a1.6,1.6,0,0,1-.357,1.085,3.519,3.519,0,0,1-1.2.8,6.027,6.027,0,0,0-2.041,1.549,3.325,3.325,0,0,0-.928,2.234v.642a1.071,1.071,0,0,0,.15.535.429.429,0,0,0,.364.264h3.425a.5.5,0,0,0,.4-.222.747.747,0,0,0,.171-.463,1.944,1.944,0,0,1,.392-.956,2.8,2.8,0,0,1,.978-.928q.556-.314.87-.507a7.23,7.23,0,0,0,.821-.621,4.1,4.1,0,0,0,.785-.849,4.819,4.819,0,0,0,.721-2.533A4.676,4.676,0,0,0,63.408,3.447Z" transform="translate(-50.804 0)" fill="#f38020"/>
</svg>
