<svg xmlns="http://www.w3.org/2000/svg" width="350" height="28.097" viewBox="0 0 350 28.097">
  <g id="Group_141345" data-name="Group 141345" transform="translate(-50 -28.473)">
    <g id="Group_141344" data-name="Group 141344" transform="translate(210.994 29)">
      <path id="Path_95851" data-name="Path 95851" d="M4.994,24.957A11.1,11.1,0,0,1,1.005,23.1a2.485,2.485,0,0,1-.772-.833A2.581,2.581,0,0,1,.557,19.59a1.63,1.63,0,0,1,1.276-.673,2.47,2.47,0,0,1,.771.124,4.879,4.879,0,0,1,.917.443,12.218,12.218,0,0,0,3.127,1.4,12.878,12.878,0,0,0,3.485.443,6.948,6.948,0,0,0,3.63-.779,2.479,2.479,0,0,0,1.257-2.232,2,2,0,0,0-1.168-1.771A15.16,15.16,0,0,0,9.7,15.269a23.167,23.167,0,0,1-5.336-1.63,6.878,6.878,0,0,1-2.911-2.373A6.19,6.19,0,0,1,.538,7.83,6.633,6.633,0,0,1,1.85,3.808a8.677,8.677,0,0,1,3.629-2.8A12.969,12.969,0,0,1,10.708,0a13.5,13.5,0,0,1,8.408,2.515,2.84,2.84,0,0,1,.773.868,2.3,2.3,0,0,1,.234,1.08,2.374,2.374,0,0,1-.557,1.56,1.63,1.63,0,0,1-1.276.672,2.463,2.463,0,0,1-.736-.106,5.129,5.129,0,0,1-.953-.46,15.2,15.2,0,0,0-2.713-1.382,9.157,9.157,0,0,0-3.143-.461,6.2,6.2,0,0,0-3.451.833A2.6,2.6,0,0,0,6.036,7.4a2.033,2.033,0,0,0,.486,1.4,4.026,4.026,0,0,0,1.617.975,24.917,24.917,0,0,0,3.217.886q4.887,1.061,7.024,2.727a5.479,5.479,0,0,1,2.139,4.57,6.586,6.586,0,0,1-1.276,4,8.214,8.214,0,0,1-3.593,2.691,13.985,13.985,0,0,1-5.373.957,20.321,20.321,0,0,1-5.282-.656" transform="translate(0 0.099)" fill="#112a63"/>
      <path id="Path_95852" data-name="Path 95852" d="M33,24.054a10.558,10.558,0,0,1-4.312-4.463,14.555,14.555,0,0,1-1.51-6.8A14.45,14.45,0,0,1,28.691,6,10.583,10.583,0,0,1,33,1.56,13.235,13.235,0,0,1,39.543,0a13.193,13.193,0,0,1,8.121,2.551,2.68,2.68,0,0,1,.755.851,2.336,2.336,0,0,1,.216,1.062,2.45,2.45,0,0,1-.521,1.577,1.575,1.575,0,0,1-1.275.655,2.814,2.814,0,0,1-.881-.124,3.452,3.452,0,0,1-.845-.442A12.1,12.1,0,0,0,42.454,4.8a8.252,8.252,0,0,0-2.623-.408A6.352,6.352,0,0,0,34.638,6.5Q32.894,8.609,32.9,12.789q0,8.43,6.935,8.431a7.7,7.7,0,0,0,2.515-.408,15.921,15.921,0,0,0,2.766-1.328,5.235,5.235,0,0,1,.9-.443,2.546,2.546,0,0,1,.826-.124,1.577,1.577,0,0,1,1.275.655,2.453,2.453,0,0,1,.521,1.577,2.285,2.285,0,0,1-.234,1.08,2.625,2.625,0,0,1-.736.833,13.193,13.193,0,0,1-8.121,2.551A13.234,13.234,0,0,1,33,24.054" transform="translate(-3.181 0.099)" fill="#112a63"/>
      <path id="Path_95853" data-name="Path 95853" d="M77.108,23.359a1.985,1.985,0,0,1-.808,1.629,3.037,3.037,0,0,1-3.217.319,2.693,2.693,0,0,1-1.077-.992l-4.743-6.942a4.231,4.231,0,0,0-1.294-1.33,3.335,3.335,0,0,0-1.726-.407h-2.91v7.156a2.745,2.745,0,0,1-.737,2.019,2.679,2.679,0,0,1-1.994.744,2.79,2.79,0,0,1-2.048-.744,2.707,2.707,0,0,1-.755-2.019V2.955a2.565,2.565,0,0,1,.683-1.913,2.65,2.65,0,0,1,1.94-.673h9.019Q71.9.369,74.18,2.3a6.9,6.9,0,0,1,2.283,5.58,7.148,7.148,0,0,1-1.618,4.782,7.8,7.8,0,0,1-4.564,2.516,4.776,4.776,0,0,1,1.922.831A7.2,7.2,0,0,1,73.839,17.8l2.732,4.039a2.688,2.688,0,0,1,.537,1.522M70.1,10.625a3.085,3.085,0,0,0,1.077-2.6A3.076,3.076,0,0,0,70.1,5.4a5.848,5.848,0,0,0-3.486-.815H61.262v6.872h5.353a5.75,5.75,0,0,0,3.486-.832" transform="translate(-7.8 0.048)" fill="#112a63"/>
      <path id="Path_95854" data-name="Path 95854" d="M85.224,24.67a2.563,2.563,0,0,1-.683-1.913V2.955a2.565,2.565,0,0,1,.683-1.913,2.651,2.651,0,0,1,1.94-.673H99.885q2.658,0,2.659,2.125,0,2.162-2.659,2.161H90V10.5h9.163q2.66,0,2.659,2.161,0,2.124-2.659,2.125H90v6.269h9.883q2.658,0,2.659,2.161,0,2.125-2.659,2.125H87.164a2.644,2.644,0,0,1-1.94-.673" transform="translate(-11.541 0.048)" fill="#112a63"/>
      <path id="Path_95855" data-name="Path 95855" d="M109.537,24.67a2.563,2.563,0,0,1-.683-1.913V2.955a2.565,2.565,0,0,1,.683-1.913,2.651,2.651,0,0,1,1.94-.673H124.2q2.658,0,2.659,2.125,0,2.162-2.659,2.161h-9.883V10.5h9.163q2.66,0,2.659,2.161,0,2.124-2.659,2.125h-9.163v6.269H124.2q2.658,0,2.659,2.161,0,2.125-2.659,2.125H111.477a2.644,2.644,0,0,1-1.94-.673" transform="translate(-14.854 0.048)" fill="#112a63"/>
      <path id="Path_95856" data-name="Path 95856" d="M164.671,24.669A2.584,2.584,0,0,1,164,22.757V2.955a2.587,2.587,0,0,1,.673-1.913,2.591,2.591,0,0,1,1.913-.673h12.54q2.62,0,2.621,2.125,0,2.162-2.621,2.161h-9.742V10.5h9.033q2.622,0,2.621,2.161,0,2.124-2.621,2.125h-9.033v6.269h9.742q2.62,0,2.621,2.161,0,2.125-2.621,2.125h-12.54a2.584,2.584,0,0,1-1.913-.673" transform="translate(-16.998 0.048)" fill="#112a63"/>
      <path id="Path_95857" data-name="Path 95857" d="M209.316,23.359a2,2,0,0,1-.8,1.629,2.958,2.958,0,0,1-3.171.319,2.664,2.664,0,0,1-1.062-.992l-4.676-6.942a4.2,4.2,0,0,0-1.276-1.33,3.247,3.247,0,0,0-1.7-.407h-2.869v7.156a2.767,2.767,0,0,1-.726,2.019,2.621,2.621,0,0,1-1.966.744,2.567,2.567,0,0,1-2.763-2.763V2.955a2.587,2.587,0,0,1,.673-1.913A2.59,2.59,0,0,1,190.9.369h8.891q4.391,0,6.642,1.93a6.95,6.95,0,0,1,2.25,5.58,7.213,7.213,0,0,1-1.595,4.782,7.654,7.654,0,0,1-4.5,2.516,4.672,4.672,0,0,1,1.9.831,7.162,7.162,0,0,1,1.612,1.789l2.692,4.039a2.708,2.708,0,0,1,.53,1.522M202.41,10.624a3.105,3.105,0,0,0,1.062-2.6A3.1,3.1,0,0,0,202.41,5.4a5.7,5.7,0,0,0-3.437-.815h-5.278v6.872h5.278a5.606,5.606,0,0,0,3.437-.832" transform="translate(-20.311 0.048)" fill="#112a63"/>
      <g id="Group_140731" data-name="Group 140731" transform="translate(115 0)">
        <path id="Path_95858" data-name="Path 95858" d="M155.5,22.978a2.769,2.769,0,0,1-.749,2.02,2.6,2.6,0,0,1-1.952.769,2.659,2.659,0,0,1-2.117-.93L138.458,9.5V22.978a2.854,2.854,0,0,1-.712,2.02,2.484,2.484,0,0,1-1.916.769A2.538,2.538,0,0,1,133.9,25a2.807,2.807,0,0,1-.731-2.02V2.917a2.724,2.724,0,0,1,.749-1.984,2.6,2.6,0,0,1,1.952-.769,2.49,2.49,0,0,1,2.08.93l12.225,15.233" transform="translate(-132.453 0.076)" fill="#112a63"/>
        <path id="Path_95859" data-name="Path 95859" d="M145.233,18.132l2.364,3.045,3.142-3.761-2.35-2.956Z" transform="translate(-134.094 -1.87)" fill="#fcfcfc"/>
        <path id="Path_184305" data-name="Path 184305" d="M145.141,17.92l3.41,4.383,3.143-4.112-3.569-4.364Z" transform="translate(-133.984 -1.887)" fill="#fcfcfc"/>
        <path id="Path_184307" data-name="Path 184307" d="M138,9.6l.3,14.65a2.927,2.927,0,0,1-.691,2.029,2.371,2.371,0,0,1-1.86.773,2.421,2.421,0,0,1-1.877-.773,2.877,2.877,0,0,1-.709-2.029l.3-8.555" transform="translate(-114.835 -1.208)" fill="#112a63"/>
        <path id="Path_184310" data-name="Path 184310" d="M147.736,20.392v1.681l4.8-6.284-.179-1.162Z" transform="translate(-130.175 -7.127)" fill="#fcfcfc"/>
        <path id="Path_184311" data-name="Path 184311" d="M26.931,1.6,27.3,6.28a1.082,1.082,0,1,1-2.156.188V6.46l-.284-2.05L8.626,23.9,7.369,16.474,5.007,22.559l-.53,1.115-.29.418a2.476,2.476,0,0,1-3.543-.106A2.969,2.969,0,0,1,0,22.291c-.022-.275.067-1.3.067-1.3L.7,22.329s.534,1.229.564.753l1.658-3.459,4.064-8.236a2.033,2.033,0,0,1,2.9-.24,2.105,2.105,0,0,1,.718,1.426l.291,3.654L17.6,8.193l.792-.948L22.332,2.53l-1.657.138a1.09,1.09,0,0,1-1.168-1.01L19.5,1.575A1.1,1.1,0,0,1,20.493.388l4.6-.382a1.722,1.722,0,0,1,1.846,1.6" transform="translate(0 1.429) rotate(-3)" fill="#f38020" stroke="#f38020" strokeWidth="1"/>
      </g>
    </g>
    <path id="Path_184342" data-name="Path 184342" d="M38.159,5.461s-3.264.038-3.7.038c-2.907,0-3.8,3.849-3.787,4.444v.117c0,6.681.014,17.9.014,17.9H24.449V9.745a7.743,7.743,0,0,1,1.143-4.589,7.953,7.953,0,0,1,2.9-2.616,11.059,11.059,0,0,1,5.336-1.247h6.481Zm19.951-1.8H56.481a24.492,24.492,0,0,0-2.512.148,7.771,7.771,0,0,0-2.7.79A5.446,5.446,0,0,0,49.15,6.521a6.175,6.175,0,0,0-.8,3.554,6.3,6.3,0,0,0,1.05,3.653,6.331,6.331,0,0,0,2.649,2.1,11.808,11.808,0,0,0,3.768.888c.431.036.871.057,1.314.073.324-.012.649-.027.978-.048Zm5.084,20.433a7.951,7.951,0,0,1-2.9,2.616,11.044,11.044,0,0,1-5.336,1.248H48.475l-2.16-4.171s7.576-.037,8.007-.037a4.072,4.072,0,0,0,2.989-2,3.016,3.016,0,0,0,.8-2.445v-.118c-.3,0-.606,0-.909-.006-.348.006-.694.008-1.041,0a34.857,34.857,0,0,1-3.758-.152,15.722,15.722,0,0,1-5.092-1.308,9.641,9.641,0,0,1-3.7-2.912,8.012,8.012,0,0,1-1.485-4.886,7.713,7.713,0,0,1,1.143-4.615,8.009,8.009,0,0,1,2.9-2.59A11.246,11.246,0,0,1,49.8,1.561a24.1,24.1,0,0,1,3.334-.272h11.2V19.5a7.752,7.752,0,0,1-1.142,4.591m43.313-11.571c-.329-.021-.653-.036-.976-.047-.443.015-.882.037-1.312.072a11.727,11.727,0,0,0-3.759.889,6.311,6.311,0,0,0-2.644,2.1,6.305,6.305,0,0,0-1.047,3.655,6.191,6.191,0,0,0,.8,3.557,5.438,5.438,0,0,0,2.119,1.927,7.743,7.743,0,0,0,2.69.791,24.618,24.618,0,0,0,2.505.148h1.628Zm4.918,15.466h-9.885a23.9,23.9,0,0,1-3.327-.273,11.156,11.156,0,0,1-3.623-1.16,8.012,8.012,0,0,1-2.894-2.594,7.744,7.744,0,0,1-1.139-4.619,8.043,8.043,0,0,1,1.482-4.892,9.606,9.606,0,0,1,3.691-2.914,15.671,15.671,0,0,1,5.082-1.31,34.485,34.485,0,0,1,3.75-.152c.346,0,.692,0,1.039,0,.3-.006.605-.006.908-.006V9.951c.012-.594-.879-4.448-3.779-4.448-.432,0-7.992-.038-7.992-.038l2.157-4.174h6.468a11.006,11.006,0,0,1,5.324,1.249,7.935,7.935,0,0,1,2.894,2.619,7.758,7.758,0,0,1,1.14,4.595V27.986ZM82.144,12.521c-.33-.021-.654-.036-.975-.047-.444.015-.882.037-1.313.072a11.743,11.743,0,0,0-3.759.889,6.313,6.313,0,0,0-2.643,2.1A6.311,6.311,0,0,0,72.4,19.191a6.2,6.2,0,0,0,.8,3.557,5.45,5.45,0,0,0,2.119,1.927,7.734,7.734,0,0,0,2.689.791,24.621,24.621,0,0,0,2.507.148h1.627Zm4.918,15.466H77.175a23.89,23.89,0,0,1-3.326-.273,11.158,11.158,0,0,1-3.623-1.16,8.008,8.008,0,0,1-2.894-2.594,7.739,7.739,0,0,1-1.14-4.619,8.038,8.038,0,0,1,1.481-4.892,9.6,9.6,0,0,1,3.692-2.914,15.661,15.661,0,0,1,5.081-1.31,34.5,34.5,0,0,1,3.75-.152c.346,0,.692,0,1.04,0,.3-.006.6-.006.907-.006V9.951c.011-.594-.88-4.448-3.78-4.448-.43,0-7.991-.038-7.991-.038l2.156-4.174H79a11,11,0,0,1,5.325,1.249A7.937,7.937,0,0,1,87.216,5.16a7.77,7.77,0,0,1,1.139,4.595V27.986ZM15.953,12.521c-.329-.021-.653-.036-.976-.047-.442.015-.881.037-1.312.072a11.742,11.742,0,0,0-3.759.889,6.316,6.316,0,0,0-2.644,2.1,6.305,6.305,0,0,0-1.047,3.655,6.191,6.191,0,0,0,.8,3.557A5.437,5.437,0,0,0,9.13,24.676a7.743,7.743,0,0,0,2.69.791,24.621,24.621,0,0,0,2.507.148h1.626Zm4.056,15.466H10.985a23.9,23.9,0,0,1-3.327-.273,11.157,11.157,0,0,1-3.623-1.16,8.012,8.012,0,0,1-2.894-2.594A7.75,7.75,0,0,1,0,19.34a8.033,8.033,0,0,1,1.482-4.892,9.6,9.6,0,0,1,3.691-2.914,15.671,15.671,0,0,1,5.082-1.31,34.485,34.485,0,0,1,3.75-.152c.346,0,.693,0,1.039,0,.3-.006.605-.006.908-.006V9.951c.012-.594-.879-4.448-3.779-4.448-.432,0-7.992-.038-7.992-.038L6.338,1.292h6.469a11,11,0,0,1,5.324,1.249,7.945,7.945,0,0,1,2.9,2.619,7.776,7.776,0,0,1,1.139,4.595V27.986H20.009Zm131.777,0h-4.919V9.161a6.974,6.974,0,0,0-1.5-4.619,3.88,3.88,0,0,0-6.457,0,6.974,6.974,0,0,0-1.5,4.619V27.986H131.19V9.161a6.967,6.967,0,0,0-1.5-4.619,5.267,5.267,0,0,0-4.283-1.8h-3.677V27.986h-6.213V.416h12.046a11.784,11.784,0,0,1,4.352.816,9.229,9.229,0,0,1,2.4,1.38,9.278,9.278,0,0,1,2.389-1.38,11.729,11.729,0,0,1,4.375-.816q.235,0,.467.01c.132,0,.263-.01.4-.01.214,0,.426.008.638.018.217-.01.435-.018.656-.018a12.075,12.075,0,0,1,3.692.569,9.507,9.507,0,0,1,3.145,1.679,8.374,8.374,0,0,1,2.188,2.717,7.881,7.881,0,0,1,.82,3.632V27.986Z" transform="translate(50 28.584)" fill="#ed7c00"/>
  </g>
</svg>
